<svg width="774" height="296" viewBox="0 0 774 296" fill="none" xmlns="http://www.w3.org/2000/svg">
<path d="M111.575 90.3848C110.477 99.5848 101.662 133.185 96.3403 155.985C94.2444 164.963 92.1824 170.877 91.6169 173.954C91.122 176.647 102.644 172.969 121.122 169.385C152.223 166.816 191.208 168.816 224.163 174.446C237.361 177.031 243.398 179.062 251.282 181.154" stroke="white" stroke-width="2" stroke-linecap="round"/>
<path d="M166.459 128.846C166.459 134.461 168.655 143.676 181.653 195.223C184.738 217.261 186.384 247.215 187.781 265.184C189.178 283.153 190.276 288.23 191.407 295" stroke="white" stroke-width="2" stroke-linecap="round"/>
<path d="M136.522 15C134.327 15 127.159 21.0923 110.053 45.3C97.745 62.7177 83.0678 93.3692 72.673 111.846C50.7019 150.9 22.9774 168.261 8.54932 178.269C15.6095 176.554 31.6924 173.461 72.1075 179.808C107.583 186.154 173.445 198.846 242.965 213.461" stroke="black" stroke-width="30" stroke-linecap="round"/>
<path d="M181.428 128.846C176.455 132.907 169.819 157.4 166.201 184.092C164.28 196.323 160.439 217.646 157.087 230.915C153.736 244.184 150.992 248.753 144.838 256.538" stroke="black" stroke-width="30" stroke-linecap="round"/>
<path d="M422.588 228.846C416.517 227.831 404.36 221.708 392.701 206.623C380.389 190.694 374.938 168.431 369.957 146.708C364.004 120.749 364.377 99.6771 365.475 89.1771C365.945 84.675 368.768 82.231 372.369 80.4156C388.145 72.4617 403.129 78.5694 412.301 82.9309C420.686 86.9179 424.218 97.5233 439.162 131.777C449.073 154.496 446.97 170.816 445.058 193.877C438.122 217.539 434.247 224.723 430.38 229.069C428.16 231.385 425.416 233.923 419.262 238.077" stroke="black" stroke-width="30" stroke-linecap="round"/>
<path d="M678.717 38.0762C678.717 43.1839 665.544 66.0915 640.098 100.645C628.271 116.705 616.847 128.599 612.564 134.876C608.281 141.153 611.026 141.153 614.36 140.138C621.861 137.854 629.337 134.492 640.647 133.722C659.091 133.461 697.294 140.568 739.14 151.845C754.092 156.015 756.287 157.03 758.549 159.615" stroke="black" stroke-width="30" stroke-linecap="round"/>
<path d="M711.98 105.77C711.98 106.785 708.687 122.539 703.697 147.393C696.512 180.477 682.625 219.554 677.369 230.562C674.858 235.477 672.662 239.031 667.074 245.77" stroke="black" stroke-width="30" stroke-linecap="round"/>
</svg>
