<svg width="16" height="16" viewBox="0 0 16 16" fill="none" xmlns="http://www.w3.org/2000/svg">
<path d="M0 5.96956C0 4.19468 1.43882 2.75586 3.2137 2.75586H5.76518C6.13091 2.75586 6.4274 3.05234 6.4274 3.41808C6.4274 3.78381 6.13091 4.08029 5.76518 4.08029H4.03721C2.71714 4.08029 1.64702 5.15042 1.64702 6.47048V12.0002C1.64702 13.4779 2.84489 14.6758 4.32254 14.6758H5H9.29241C10.7122 14.6758 11.8657 13.5295 11.8746 12.1097L11.8867 10.1843C11.8889 9.82979 12.1769 9.54358 12.5314 9.54358C12.8875 9.54358 13.1762 9.83224 13.1762 10.1883V12.7719C13.1762 14.5548 11.7308 16.0002 9.94787 16.0002L3 16.0002C1.34317 16.0002 0 14.6571 0 13.0002V5.96956Z" fill="#7171A3"/>
<path d="M10.7999 3.52515L11.6234 2.69738L13.3408 4.4115L12.5052 5.25148L10.7999 3.52515Z" fill="#7171A3"/>
<path d="M4.59117 8.75434C4.66381 8.35402 4.8559 7.98539 5.14193 7.69741L11.9512 0.841835C12.1054 0.686526 12.3028 0.581684 12.5173 0.541049C12.6702 0.512089 12.8276 0.516575 12.9786 0.554202L13.1762 0.603426L13.5295 0.744956L6.02187 8.45147C5.8544 8.62338 5.74332 8.84385 5.70397 9.08118C5.5726 9.8735 6.25523 10.5648 7.04347 10.4328C7.2829 10.3927 7.50388 10.2784 7.67552 10.1058L12.3527 5.4045L13.8064 3.94329C14.1814 3.56631 14.1689 2.95135 13.7789 2.59007L12.9082 1.70684C12.8201 1.61746 12.8197 1.47355 12.9073 1.38366L13.0651 1.2216L13.5295 0.744956L15.1046 2.37053C15.2446 2.51502 15.3503 2.68947 15.4137 2.88082L15.4275 2.92232C15.4636 3.03122 15.482 3.14526 15.482 3.26005C15.482 3.47089 15.4199 3.67702 15.3036 3.85245L15.2338 3.95766C15.1798 4.03906 15.1179 4.1149 15.0491 4.18408L8.3328 10.9352C8.05432 11.2151 7.69964 11.4059 7.31346 11.4835L4.64284 12.0204C4.62212 12.0246 4.60103 12.0267 4.5799 12.0267C4.49479 12.0267 4.41317 11.9927 4.35298 11.9322L4.28227 11.8611C4.17682 11.7551 4.11757 11.6113 4.11757 11.4614V11.4238C4.11757 11.3843 4.12112 11.3449 4.12817 11.3061L4.59117 8.75434Z" fill="#7171A3"/>
</svg>
