<svg width="20" height="20" viewBox="0 0 20 20" fill="none" xmlns="http://www.w3.org/2000/svg">
<path d="M11.3982 1.00739C11.3982 1.00739 10.0306 1.03699 10.1194 1.98115C10.2082 2.92531 8.66005 5.02376 6.3452 4.38446C5.21739 3.44326 5.70582 3.92866 5.61406 5.84658C5.61406 5.84658 2.65393 4.95865 1.41364 5.63347C1.41364 5.63347 -0.0190657 7.06599 2.44672 7.40932C4.9125 7.75265 5.90711 12.3314 5.90711 12.3314C5.90711 12.3314 5.87751 16.0459 5.05459 16.9279C5.05459 16.9279 5.75318 19.0293 12.1175 18.9997C12.1175 18.9997 11.9044 16.5638 14.3406 16.8361C16.7767 17.1084 16.8981 18.2065 18.9998 15.4362C18.9998 15.4362 17.3865 15.4658 17.5197 10.8397C17.3609 10.7007 17.1539 10.6294 16.9432 10.641C16.7324 10.6526 16.5346 10.7462 16.3919 10.9018C16.3919 10.9018 19.1626 8.1611 18.982 5.39077C18.982 5.39077 14.0475 4.32527 12.7391 2.286C11.7949 0.823887 11.3982 1.00739 11.3982 1.00739Z" stroke="black" stroke-width="2" stroke-linecap="round" stroke-linejoin="round"/>
</svg>
