<svg width="500" height="156.86275" viewBox="0 0 102 32" fill="none" xmlns="http://www.w3.org/2000/svg">
<path d="M43.5651 23H40.4498L45.1965 9.25H48.9429L53.6829 23H50.5676L47.1234 12.3921H47.016L43.5651 23ZM43.3704 17.5953H50.7288V19.8646H43.3704V17.5953ZM58.1442 9.25V23H55.2841V9.25H58.1442ZM60.4353 23V12.6875H63.2954V23H60.4353ZM61.8721 11.3582C61.4469 11.3582 61.0821 11.2172 60.7777 10.9352C60.4779 10.6487 60.3279 10.3063 60.3279 9.90796C60.3279 9.51408 60.4779 9.17615 60.7777 8.89417C61.0821 8.60771 61.4469 8.46448 61.8721 8.46448C62.2973 8.46448 62.6599 8.60771 62.9597 8.89417C63.2641 9.17615 63.4163 9.51408 63.4163 9.90796C63.4163 10.3063 63.2641 10.6487 62.9597 10.9352C62.6599 11.2172 62.2973 11.3582 61.8721 11.3582ZM65.5328 23V21.2947L70.5817 15.0441V14.9702H65.7074V12.6875H74.0259V14.5472L69.2859 20.6434V20.7173H74.2004V23H65.5328ZM80.7515 23.2014C79.7086 23.2014 78.8067 22.9799 78.0458 22.5367C77.2894 22.0892 76.7053 21.467 76.2935 20.6703C75.8817 19.8691 75.6758 18.9403 75.6758 17.884C75.6758 16.8188 75.8817 15.8878 76.2935 15.0911C76.7053 14.2899 77.2894 13.6677 78.0458 13.2246C78.8067 12.777 79.7086 12.5532 80.7515 12.5532C81.7944 12.5532 82.694 12.777 83.4505 13.2246C84.2114 13.6677 84.7977 14.2899 85.2095 15.0911C85.6213 15.8878 85.8272 16.8188 85.8272 17.884C85.8272 18.9403 85.6213 19.8691 85.2095 20.6703C84.7977 21.467 84.2114 22.0892 83.4505 22.5367C82.694 22.9799 81.7944 23.2014 80.7515 23.2014ZM80.7649 20.9858C81.2394 20.9858 81.6355 20.8516 81.9533 20.583C82.2711 20.31 82.5105 19.9385 82.6717 19.4685C82.8373 18.9985 82.9201 18.4637 82.9201 17.8639C82.9201 17.2641 82.8373 16.7292 82.6717 16.2593C82.5105 15.7893 82.2711 15.4178 81.9533 15.1448C81.6355 14.8717 81.2394 14.7352 80.7649 14.7352C80.286 14.7352 79.8832 14.8717 79.5564 15.1448C79.2342 15.4178 78.9902 15.7893 78.8246 16.2593C78.6635 16.7292 78.5829 17.2641 78.5829 17.8639C78.5829 18.4637 78.6635 18.9985 78.8246 19.4685C78.9902 19.9385 79.2342 20.31 79.5564 20.583C79.8832 20.8516 80.286 20.9858 80.7649 20.9858ZM90.547 17.0381V23H87.6869V12.6875H90.4128V14.507H90.5336C90.7619 13.9072 91.1446 13.4327 91.6817 13.0836C92.2188 12.73 92.87 12.5532 93.6354 12.5532C94.3516 12.5532 94.9759 12.7099 95.5086 13.0232C96.0412 13.3365 96.4552 13.7841 96.7506 14.366C97.0461 14.9434 97.1938 15.6326 97.1938 16.4338V23H94.3336V16.9441C94.3381 16.313 94.177 15.8206 93.8503 15.467C93.5235 15.109 93.0737 14.9299 92.5008 14.9299C92.1158 14.9299 91.7757 15.0127 91.4803 15.1783C91.1893 15.344 90.961 15.5857 90.7954 15.9034C90.6343 16.2168 90.5515 16.595 90.547 17.0381Z" fill="#030212"/>
<rect width="32" height="32" rx="10" fill="#030212"/>
<path d="M14.5366 5.78043L18.3555 5.78047L21.561 12.731L21.561 13.3628L18.6342 16.5221L16.2927 10.2035L12.1952 19.6814L7.51225 20.3132L14.5366 5.78043Z" fill="white"/>
<path d="M20.3903 20.3131L22.439 19.0494L23.9025 17.1538L28 25.9999H23.3171L20.3903 20.3131Z" fill="white"/>
<path d="M6.34152 23.4727L8.12263 24.0237H10.1663L9.29336 25.9193H5.1958L6.34152 23.4727Z" fill="white"/>
<path d="M4 17.786L5.17073 16.5223L5.7561 15.8904V16.5223L5.17073 17.1541L4.58537 18.4178L5.17073 19.6816L6.34146 20.3134L8.09756 20.9453H11.0244L16.2927 19.0497L20.3902 15.8904L23.3171 12.7311L23.9024 12.0992L22.7317 11.4674L26.8293 8.93994V13.9948L25.6585 13.363L23.9024 15.8904L20.9756 18.4178L17.4634 20.9453L13.9512 22.209L11.0244 22.8409H8.09756L5.7561 22.209L4 20.3134V17.786Z" fill="white"/>
</svg>
