<svg width="16" height="16" viewBox="0 0 16 16" fill="none" xmlns="http://www.w3.org/2000/svg">
<path d="M5.33329 14.6668C5.70148 14.6668 5.99996 14.3684 5.99996 14.0002C5.99996 13.632 5.70148 13.3335 5.33329 13.3335C4.9651 13.3335 4.66663 13.632 4.66663 14.0002C4.66663 14.3684 4.9651 14.6668 5.33329 14.6668Z" stroke="white" stroke-width="1.33333" stroke-linecap="round" stroke-linejoin="round"/>
<path d="M12.6667 14.6668C13.0349 14.6668 13.3333 14.3684 13.3333 14.0002C13.3333 13.632 13.0349 13.3335 12.6667 13.3335C12.2985 13.3335 12 13.632 12 14.0002C12 14.3684 12.2985 14.6668 12.6667 14.6668Z" stroke="white" stroke-width="1.33333" stroke-linecap="round" stroke-linejoin="round"/>
<path d="M1.3667 1.3667H2.70003L4.47337 9.6467C4.53842 9.94994 4.70715 10.221 4.95051 10.4133C5.19387 10.6055 5.49664 10.7069 5.8067 10.7H12.3267C12.6301 10.6995 12.9244 10.5956 13.1607 10.4053C13.3971 10.215 13.5615 9.94972 13.6267 9.65337L14.7267 4.70003H3.41337" stroke="white" stroke-width="1.33333" stroke-linecap="round" stroke-linejoin="round"/>
</svg>
