<svg width="948" height="30" viewBox="0 0 948 30" fill="none" xmlns="http://www.w3.org/2000/svg">
<rect width="30" height="30" fill="white"/>
<rect width="30" height="30" fill="#7171A3"/>
<path d="M25 10L11.25 23.75L5 17.5" stroke="white" stroke-width="2" stroke-linecap="round" stroke-linejoin="round"/>
<path d="M30 15H230" stroke="#7171A3" stroke-width="3"/>
<rect x="230" width="30" height="30" fill="white"/>
<rect x="230" width="30" height="30" fill="#7171A3"/>
<path d="M255 10L241.25 23.75L235 17.5" stroke="white" stroke-width="2" stroke-linecap="round" stroke-linejoin="round"/>
<path d="M260 15H460" stroke="#7171A3" stroke-width="3"/>
<rect x="460" width="30" height="30" fill="white"/>
<rect x="460" width="30" height="30" fill="#7171A3"/>
<path d="M485 10L471.25 23.75L465 17.5" stroke="white" stroke-width="2" stroke-linecap="round" stroke-linejoin="round"/>
<path d="M490 15H690" stroke="#7171A3" stroke-width="3"/>
<rect x="690" width="30" height="30" fill="white"/>
<rect x="690" width="30" height="30" fill="#7171A3"/>
<path d="M715 10L701.25 23.75L695 17.5" stroke="white" stroke-width="2" stroke-linecap="round" stroke-linejoin="round"/>
<path d="M720 15H920" stroke="#7171A3" stroke-width="3"/>
<rect x="918.5" y="0.5" width="29" height="29" fill="white" stroke="#7171A3"/>
</svg>
