<svg width="27" height="29" viewBox="0 0 27 29" fill="none" xmlns="http://www.w3.org/2000/svg">
<path d="M26.8784 21.2517C26.1453 22.7595 25.792 23.4334 24.849 24.7641C23.5289 26.6237 21.6669 28.9456 19.3665 28.9604C17.3186 28.9776 16.79 27.7231 14.0089 27.7453C11.2304 27.7576 10.6514 28.985 8.60076 28.9653C6.29779 28.9456 4.5367 26.8549 3.21654 24.9978C-0.475648 19.7906 -0.866117 13.6857 1.4156 10.4389C3.0306 8.13665 5.58326 6.78382 7.98185 6.78382C10.4256 6.78382 11.9609 8.02596 13.9797 8.02596C15.94 8.02596 17.1326 6.78136 19.9589 6.78136C22.0945 6.78136 24.3523 7.8587 25.9673 9.71822C20.6867 12.3993 21.5447 19.3823 26.8784 21.2517ZM17.8126 4.70292C18.8406 3.48046 19.6215 1.75622 19.3373 0C17.6612 0.105767 15.7009 1.09702 14.5561 2.38098C13.5175 3.55179 12.6569 5.28833 12.9915 6.96829C14.8217 7.02241 16.7156 6.01148 17.8126 4.70292Z" fill="black"/>
</svg>
