<svg width="255" height="219" viewBox="0 0 255 219" fill="none" xmlns="http://www.w3.org/2000/svg">
    <ellipse cx="128.955" cy="104.367" rx="99.9547" ry="99.9932" fill="#FFFFFF"></ellipse>
    <path d="M68.0096 206.659C70.5869 202.771 78.3395 195.35 88.7313 196.765C99.1232 198.181 106.119 188.782 108.318 183.905" stroke="#BDBDBD" stroke-width="3" stroke-dasharray="8 8"></path>
    <g>
        <path d="M188.576 199.974L192.841 185.949C192.902 185.746 192.908 185.531 192.859 185.325C192.809 185.119 192.707 184.93 192.561 184.776L182.19 173.927C182.051 173.778 181.875 173.669 181.68 173.61C181.486 173.55 181.279 173.543 181.081 173.59L166.427 176.823C166.22 176.869 166.03 176.969 165.874 177.113C165.719 177.257 165.604 177.439 165.541 177.641L161.276 191.666C161.216 191.869 161.21 192.084 161.259 192.29C161.308 192.496 161.411 192.686 161.556 192.839L171.928 203.688C172.067 203.837 172.242 203.946 172.437 204.006C172.632 204.065 172.839 204.072 173.037 204.026L187.691 200.793C187.897 200.746 188.088 200.646 188.243 200.502C188.399 200.359 188.514 200.177 188.576 199.974V199.974Z" stroke="#BDBDBD" stroke-width="2" stroke-linecap="round" stroke-linejoin="round"></path>
        <path d="M182.966 194.414L185.215 187.016L173.737 175.208" stroke="#BDBDBD" stroke-width="2" stroke-linecap="round" stroke-linejoin="round"></path>
        <path d="M192.863 185.319L177.187 188.847L165.875 177.105" stroke="#BDBDBD" stroke-width="2" stroke-linecap="round" stroke-linejoin="round"></path>
        <path d="M177.187 188.847L172.439 204.001" stroke="#BDBDBD" stroke-width="2" stroke-linecap="round" stroke-linejoin="round"></path>
    </g>
    <path d="M203.688 13.4251C204.278 11.3525 205.674 9.60126 207.567 8.55659C209.461 7.51192 211.697 7.25941 213.785 7.8546C215.872 8.4498 217.64 9.84394 218.698 11.7303C219.757 13.6167 220.02 15.8408 219.429 17.9134L177.45 33.8274C177.05 33.9792 176.708 34.2526 176.473 34.6089C176.239 34.9652 176.123 35.3862 176.143 35.8125C176.163 36.2387 176.317 36.6485 176.584 36.9838C176.85 37.3191 177.216 37.5628 177.629 37.6806L228.789 52.2677C229.202 52.3855 229.642 52.3712 230.045 52.227C230.448 52.0828 230.795 51.8159 231.037 51.4641C231.278 51.1123 231.402 50.6936 231.39 50.2671C231.378 49.8406 231.232 49.428 230.972 49.0878L209.889 21.5302" stroke="#BDBDBD" stroke-width="2.5" stroke-linecap="round" stroke-linejoin="round"></path>
    <path fill-rule="evenodd" clip-rule="evenodd" d="M30.9922 31.5113C30.2577 31.8527 29.9387 32.7251 30.2804 33.4603L30.8988 34.7908L46.9805 27.3141L46.3634 25.9863C46.0218 25.2512 45.1492 24.9324 44.4147 25.2737L30.9922 31.5113ZM38.8208 56.5808L29.525 36.5801C29.5184 36.5673 29.512 36.5544 29.5059 36.5412C29.4998 36.5282 29.4941 36.5151 29.4886 36.5019L28.4667 34.3031C27.6597 32.5667 28.4126 30.5047 30.1492 29.6977L43.5718 23.4601C45.3083 22.6531 47.3701 23.4071 48.1772 25.1435L59.6169 49.757C60.4239 51.4934 59.671 53.5555 57.9344 54.3625L44.5118 60.6001C42.7753 61.4071 40.7135 60.6531 39.9064 58.9167L38.912 56.777C38.8935 56.7464 38.8765 56.7144 38.8611 56.6812C38.8457 56.6481 38.8323 56.6146 38.8208 56.5808ZM41.1014 56.7424L41.7201 58.0738C42.0618 58.809 42.9344 59.1277 43.6689 58.7864L57.0914 52.5488C57.8259 52.2075 58.1449 51.335 57.8032 50.5999L57.1831 49.2657L41.1014 56.7424ZM56.3401 47.452L40.2584 54.9288L31.7418 36.6045L47.8235 29.1278L56.3401 47.452Z" fill="#BDBDBD"></path>
    <path d="M90.378 55.9596H97.338V58.0996H90.378V55.9596ZM90.578 61.9596H98.478V64.1396H87.978V50.1396H98.198V52.3196H90.578V61.9596ZM101.376 64.1396V50.1396H107.136C108.376 50.1396 109.436 50.3396 110.316 50.7396C111.21 51.1396 111.896 51.713 112.376 52.4596C112.856 53.2063 113.096 54.093 113.096 55.1196C113.096 56.1463 112.856 57.033 112.376 57.7796C111.896 58.513 111.21 59.0796 110.316 59.4796C109.436 59.8663 108.376 60.0596 107.136 60.0596H102.816L103.976 58.8796V64.1396H101.376ZM110.536 64.1396L106.996 59.0596H109.776L113.336 64.1396H110.536ZM103.976 59.1596L102.816 57.9196H107.016C108.163 57.9196 109.023 57.673 109.596 57.1796C110.183 56.6863 110.476 55.9996 110.476 55.1196C110.476 54.2263 110.183 53.5396 109.596 53.0596C109.023 52.5796 108.163 52.3396 107.016 52.3396H102.816L103.976 51.0596V59.1596ZM116.005 64.1396V50.1396H121.765C123.005 50.1396 124.065 50.3396 124.945 50.7396C125.839 51.1396 126.525 51.713 127.005 52.4596C127.485 53.2063 127.725 54.093 127.725 55.1196C127.725 56.1463 127.485 57.033 127.005 57.7796C126.525 58.513 125.839 59.0796 124.945 59.4796C124.065 59.8663 123.005 60.0596 121.765 60.0596H117.445L118.605 58.8796V64.1396H116.005ZM125.165 64.1396L121.625 59.0596H124.405L127.965 64.1396H125.165ZM118.605 59.1596L117.445 57.9196H121.645C122.792 57.9196 123.652 57.673 124.225 57.1796C124.812 56.6863 125.105 55.9996 125.105 55.1196C125.105 54.2263 124.812 53.5396 124.225 53.0596C123.652 52.5796 122.792 52.3396 121.645 52.3396H117.445L118.605 51.0596V59.1596ZM133.034 55.9596H139.994V58.0996H133.034V55.9596ZM133.234 61.9596H141.134V64.1396H130.634V50.1396H140.854V52.3196H133.234V61.9596ZM150.053 64.3396C148.133 64.3396 146.626 63.7996 145.533 62.7196C144.453 61.6396 143.913 60.0796 143.913 58.0396V50.1396H146.513V57.9396C146.513 59.3796 146.819 60.4263 147.433 61.0796C148.059 61.733 148.939 62.0596 150.073 62.0596C151.206 62.0596 152.079 61.733 152.693 61.0796C153.306 60.4263 153.613 59.3796 153.613 57.9396V50.1396H156.173V58.0396C156.173 60.0796 155.626 61.6396 154.533 62.7196C153.453 63.7996 151.959 64.3396 150.053 64.3396ZM159.814 64.1396V50.1396H165.574C166.814 50.1396 167.874 50.3396 168.754 50.7396C169.647 51.1396 170.334 51.713 170.814 52.4596C171.294 53.2063 171.534 54.093 171.534 55.1196C171.534 56.1463 171.294 57.033 170.814 57.7796C170.334 58.513 169.647 59.0796 168.754 59.4796C167.874 59.8663 166.814 60.0596 165.574 60.0596H161.254L162.414 58.8796V64.1396H159.814ZM168.974 64.1396L165.434 59.0596H168.214L171.774 64.1396H168.974ZM162.414 59.1596L161.254 57.9196H165.454C166.601 57.9196 167.461 57.673 168.034 57.1796C168.621 56.6863 168.914 55.9996 168.914 55.1196C168.914 54.2263 168.621 53.5396 168.034 53.0596C167.461 52.5796 166.601 52.3396 165.454 52.3396H161.254L162.414 51.0596V59.1596Z" fill="#757575"></path>
    <path d="M0.4145 146.788V135.268L44.5745 77.5396H62.3665L18.8465 135.268L10.5265 132.708H81.5665V146.788H0.4145ZM49.5665 167.14V146.788L50.0785 132.708V114.66H65.6945V167.14H49.5665ZM125.946 168.42C118.863 168.42 112.463 166.628 106.746 163.044C101.114 159.46 96.6762 154.254 93.4335 147.428C90.1908 140.516 88.5695 132.153 88.5695 122.34C88.5695 112.526 90.1908 104.206 93.4335 97.3796C96.6762 90.4676 101.114 85.2196 106.746 81.6356C112.463 78.0516 118.863 76.2596 125.946 76.2596C133.114 76.2596 139.514 78.0516 145.146 81.6356C150.778 85.2196 155.215 90.4676 158.458 97.3796C161.786 104.206 163.45 112.526 163.45 122.34C163.45 132.153 161.786 140.516 158.458 147.428C155.215 154.254 150.778 159.46 145.146 163.044C139.514 166.628 133.114 168.42 125.946 168.42ZM125.946 153.956C130.127 153.956 133.754 152.846 136.826 150.628C139.898 148.324 142.287 144.825 143.994 140.132C145.786 135.438 146.682 129.508 146.682 122.34C146.682 115.086 145.786 109.156 143.994 104.548C142.287 99.8543 139.898 96.3983 136.826 94.1796C133.754 91.8756 130.127 90.7236 125.946 90.7236C121.935 90.7236 118.351 91.8756 115.194 94.1796C112.122 96.3983 109.69 99.8543 107.898 104.548C106.191 109.156 105.338 115.086 105.338 122.34C105.338 129.508 106.191 135.438 107.898 140.132C109.69 144.825 112.122 148.324 115.194 150.628C118.351 152.846 121.935 153.956 125.946 153.956ZM173.415 146.788V135.268L217.575 77.5396H235.367L191.847 135.268L183.527 132.708H254.567V146.788H173.415ZM222.567 167.14V146.788L223.079 132.708V114.66H238.695V167.14H222.567Z" fill="#1976D2"></path>
</svg>
