<svg width="40" height="40" viewBox="0 0 40 40" fill="none" xmlns="http://www.w3.org/2000/svg">
<path d="M20.0001 4.1665C15.8008 4.1665 11.7735 5.83465 8.80422 8.80398C5.8349 11.7733 4.16675 15.8006 4.16675 19.9998C4.16675 24.1991 5.8349 28.2264 8.80422 31.1957C11.7735 34.165 15.8008 35.8332 20.0001 35.8332C24.1993 35.8332 28.2266 34.165 31.1959 31.1957C34.1653 28.2264 35.8334 24.1991 35.8334 19.9998C35.8334 15.8006 34.1653 11.7733 31.1959 8.80398C28.2266 5.83465 24.1993 4.1665 20.0001 4.1665Z" fill="#039BE5"/>
<path d="M22.1433 24.1966H26.2408L26.8841 20.0341H22.1424V17.7591C22.1424 16.03 22.7074 14.4966 24.3249 14.4966H26.9241V10.8641C26.4674 10.8025 25.5016 10.6675 23.6766 10.6675C19.8658 10.6675 17.6316 12.68 17.6316 17.265V20.0341H13.7141V24.1966H17.6316V35.6375C18.4074 35.7541 19.1933 35.8333 19.9999 35.8333C20.7291 35.8333 21.4408 35.7666 22.1433 35.6716V24.1966Z" fill="white"/>
</svg>
