<?xml version="1.0" encoding="UTF-8" standalone="no"?>
<svg
   width="128"
   height="126"
   viewBox="0 0 128 126"
   fill="none"
   version="1.1"
   id="svg12"
   sodipodi:docname="logo_bronze.svg"
   inkscape:version="1.2.2 (b0a8486541, 2022-12-01)"
   xmlns:inkscape="http://www.inkscape.org/namespaces/inkscape"
   xmlns:sodipodi="http://sodipodi.sourceforge.net/DTD/sodipodi-0.dtd"
   xmlns="http://www.w3.org/2000/svg"
   xmlns:svg="http://www.w3.org/2000/svg">
  <defs
     id="defs16" />
  <sodipodi:namedview
     id="namedview14"
     pagecolor="#ffffff"
     bordercolor="#000000"
     borderopacity="0.25"
     inkscape:showpageshadow="2"
     inkscape:pageopacity="0.0"
     inkscape:pagecheckerboard="0"
     inkscape:deskcolor="#d1d1d1"
     showgrid="false"
     inkscape:zoom="6.4444444"
     inkscape:cx="64.008621"
     inkscape:cy="110.94828"
     inkscape:window-width="1920"
     inkscape:window-height="1018"
     inkscape:window-x="0"
     inkscape:window-y="0"
     inkscape:window-maximized="1"
     inkscape:current-layer="svg12" />
  <rect
     width="128"
     height="128"
     rx="10"
     fill="#030212"
     id="rect2" />
  <path
     d="M58.1465 23.1217L73.4222 23.1219L86.244 50.9238L86.244 53.4513L74.5367 66.0885L65.1709 40.8141L48.7806 78.7257L30.049 81.2529L58.1465 23.1217Z"
     fill="white"
     id="path4" />
  <path
     d="M81.561 81.2529L89.7562 76.198L95.6098 68.6157L112 104H93.2684L81.561 81.2529Z"
     fill="white"
     id="path6" />
  <path
     d="M25.3661 93.8901L32.4905 96.0942H40.6652L37.1734 103.677H20.7832L25.3661 93.8901Z"
     fill="white"
     id="path8" />
  <path
     d="M16 71.1434L20.6829 66.0886L23.0244 63.5611V66.0886L20.6829 68.616L18.3415 73.6709L20.6829 78.7258L25.3659 81.2532L32.3902 83.7807H44.0976L65.1707 76.1983L81.561 63.5611L93.2683 50.9239L95.6098 48.3965L90.9268 45.869L107.317 35.7593V55.9788L102.634 53.4514L95.6098 63.5611L83.9024 73.6709L69.8537 83.7807L55.8049 88.8355L44.0976 91.363H32.3902L23.0244 88.8355L16 81.2532V71.1434Z"
     fill="white"
     id="path10" />
  <path
     style="fill:#cd7f32;stroke-width:0.0240517;fill-opacity:1"
     d="M 8.3123823,127.77141 C 5.101234,127.13851 2.4595838,125.12357 1.0697957,122.24709 0.00443658,120.04208 0.08297491,124.67712 0.08297491,64.008621 0.08297491,2.7671004 -0.01504848,7.9658967 1.1853512,5.5426882 2.3104305,3.2715267 4.3359266,1.5187921 6.9308373,0.57091253 L 8.0689655,0.15517241 H 64.008621 119.94828 l 1.13812,0.41574012 c 3.09909,1.13204557 5.32493,3.37004327 6.34393,6.37856057 l 0.43174,1.2746648 V 64.008621 119.7931 l -0.43815,1.23989 c -1.1176,3.16263 -3.2283,5.27333 -6.39093,6.39093 l -1.23989,0.43815 -55.396548,0.0224 c -31.054525,0.0126 -55.6987009,-0.0371 -56.0841697,-0.1131 z M 111.7434,103.22845 c -1.19694,-2.67328 -15.979356,-34.508244 -16.069355,-34.606471 -0.06017,-0.06567 -1.428869,1.596356 -3.041557,3.693392 l -2.932159,3.812794 -4.078613,2.510576 c -2.243236,1.380818 -4.078613,2.572036 -4.078613,2.647152 0,0.119979 6.724765,13.266104 10.351343,20.235657 l 1.312077,2.52155 h 9.450817 9.45082 z M 38.993293,99.953929 c 0.956706,-2.078356 1.739466,-3.824046 1.739466,-3.879311 0,-0.05526 -1.877368,-0.10048 -4.171929,-0.10048 h -4.171928 l -3.52528,-1.095894 c -1.938904,-0.602743 -3.543509,-1.074079 -3.565789,-1.047414 -0.04754,0.05689 -4.426324,9.42212 -4.539037,9.70796 -0.06061,0.15371 1.643326,0.19397 8.209274,0.19397 h 8.285756 z m 10.850977,-9.738891 5.862627,-1.2591 7.116472,-2.556047 7.116472,-2.556045 7.004217,-5.041426 c 6.509238,-4.685154 7.41879,-5.399177 12.870616,-10.103778 l 5.866399,-5.062353 3.238872,-4.670854 c 1.781375,-2.568971 3.366065,-4.827491 3.521535,-5.018934 l 0.28266,-0.348076 2.2968,1.2482 c 1.26324,0.686513 2.32811,1.248203 2.36638,1.248203 0.0383,0 0.0696,-4.578828 0.0696,-10.175171 0,-8.927916 -0.0283,-10.169022 -0.23094,-10.125 -0.27566,0.05989 -16.360158,9.946119 -16.367458,10.060152 -0.0028,0.04342 1.031658,0.638043 2.298751,1.32138 l 2.303803,1.242435 -6.997769,7.548697 c -6.755591,7.28745 -7.083693,7.615041 -9.480528,9.465705 -1.365518,1.054355 -5.043389,3.889832 -8.173048,6.301064 l -5.690287,4.384057 -10.550096,3.798684 -10.550097,3.798686 H 38.242724 32.466217 L 28.969248,82.456864 C 26.39407,81.529988 24.851314,80.865313 23.116542,79.935312 L 20.760806,78.672414 19.601463,76.181007 18.442119,73.689601 19.61761,71.16955 c 1.043145,-2.236323 1.302843,-2.658499 2.306601,-3.749718 l 1.131108,-1.229667 -0.0449,-1.353495 -0.0449,-1.353494 -3.524611,3.792895 -3.524609,3.792895 -0.0032,5.120689 -0.0032,5.12069 3.534486,3.801724 3.534486,3.801724 4.648531,1.266334 4.648533,1.266334 5.852891,0.01384 5.852892,0.01384 5.862625,-1.2591 z M 39.836992,80.012981 c 4.926724,-0.662313 8.984441,-1.234887 9.017145,-1.272386 0.0327,-0.0375 3.708894,-8.517319 8.169306,-18.844043 4.460414,-10.326724 8.118863,-18.787718 8.129889,-18.802206 0.01103,-0.01449 2.112857,5.624688 4.670738,12.531505 2.557881,6.906818 4.692749,12.539792 4.744153,12.517723 0.0514,-0.02207 2.706649,-2.860836 5.900549,-6.308371 l 5.80709,-6.268247 0.0383,-1.335202 0.0383,-1.335202 L 79.938137,37.008621 73.523806,23.12069 h -7.73838 -7.73838 l -14.00106,28.939655 c -7.700582,15.91681 -14.005348,29.014845 -14.010592,29.106746 -0.0054,0.09432 0.176313,0.141614 0.417192,0.108593 0.234698,-0.03217 4.457682,-0.60039 9.384406,-1.262703 z"
     id="path868" />
  <path
     style="fill:#cd7f32;fill-opacity:1;stroke-width:0.0240517"
     d="M 8.1217719,126.44333 C 7.8657375,126.40929 7.3071168,126.27044 6.8803926,126.13478 4.2699282,125.30487 2.2045278,123.50128 0.843509,120.86314 0.2888034,119.78792 0.26540044,119.67549 0.1167829,117.37176 -0.10519186,113.93092 0.01821389,7.2622325 0.24539817,6.2000871 0.50252948,4.9979318 1.6228052,3.1195342 2.7737809,1.9606771 3.8925359,0.83426128 4.9697251,0.13795098 6.6536601,-0.54733133 L 7.7659968,-1 H 63.751083 119.73617 l 1.11233,0.45266867 c 3.22345,1.31179301 5.07453,3.20700883 6.29231,6.44234433 l 0.38613,1.025865 v 55.845268 55.845264 l -0.47626,1.24721 c -1.16804,3.05879 -3.15805,5.0488 -6.21684,6.21684 l -1.24721,0.47626 -55.499667,-0.0233 c -30.524821,-0.0127 -55.7091566,-0.051 -55.9651911,-0.0851 z M 111.77267,102.48653 c -0.16189,-0.51005 -16.163974,-35.026105 -16.323663,-35.209677 -0.08904,-0.102355 -0.52907,0.431246 -3.538987,4.29152 l -2.560501,3.283892 -1.588011,0.970503 c -4.242119,2.592544 -6.475943,4.06905 -6.475943,4.280446 0,0.217882 3.660376,7.43767 9.132027,18.012159 l 2.428318,4.692957 9.51477,9.3e-4 9.51476,9.3e-4 -0.10277,-0.32381 z M 38.799501,98.775861 c 0.920156,-2.005603 1.67362,-3.733836 1.674365,-3.840517 0.0011,-0.150242 -0.899351,-0.193472 -3.994335,-0.191779 l -3.99569,0.0022 -3.607927,-1.10493 c -1.984361,-0.607711 -3.695137,-1.070669 -3.801725,-1.028796 -0.187701,0.07374 -4.61621,9.408901 -4.61621,9.730831 0,0.10818 2.693491,0.14686 8.334256,0.11969 l 8.334256,-0.0401 z m 11.05417,-9.769695 5.75086,-1.235211 7.075497,-2.548879 7.075498,-2.548879 4.484847,-3.227002 c 8.824123,-6.349259 9.904579,-7.194949 17.035717,-13.334126 l 4.145633,-3.568966 3.344206,-4.810345 c 1.839311,-2.645689 3.435661,-4.906385 3.547441,-5.02377 0.17109,-0.179671 0.54866,-0.02629 2.38738,0.969827 1.20128,0.65079 2.2549,1.183254 2.34138,1.183254 0.22804,0 0.21682,-20.117267 -0.0113,-20.258254 -0.28229,-0.174463 -16.357334,9.673346 -16.357334,10.020741 0,0.107092 0.942673,0.709107 2.094828,1.337811 1.152155,0.628705 2.11277,1.196473 2.134699,1.261704 0.0588,0.174923 -12.746503,13.909002 -14.094473,15.116751 -0.633761,0.567835 -4.495289,3.608613 -8.58117,6.757285 l -7.428874,5.724857 -10.648712,3.831413 -10.648711,3.831415 -5.533036,-0.0016 -5.533037,-0.0016 -2.613515,-0.951677 c -3.283182,-1.19543 -5.580273,-2.181308 -7.627347,-3.273453 l -1.600039,-0.853644 -1.166988,-2.480906 -1.166988,-2.480906 1.238881,-2.544314 c 1.045063,-2.146263 1.403629,-2.723169 2.291926,-3.687545 l 1.053043,-1.143231 -0.04084,-1.415817 c -0.02246,-0.778698 -0.06015,-1.43512 -0.08374,-1.458715 -0.02359,-0.0236 -1.621258,1.651683 -3.550363,3.722841 l -3.507463,3.765739 -0.002,5.275862 -0.002,5.275862 3.1056,3.336207 c 1.708081,1.834914 3.296618,3.52909 3.530084,3.764835 0.358568,0.362072 1.110443,0.618423 4.842008,1.650877 l 4.417524,1.222246 6.275002,0.01723 6.274991,0.0173 z M 36.207979,79.312561 c 3.413793,-0.462578 7.568535,-1.027412 9.232759,-1.255185 1.664224,-0.227771 3.10326,-0.494853 3.197858,-0.593513 0.141531,-0.147608 4.95668,-11.212918 14.890859,-34.219505 1.166431,-2.701341 1.384412,-3.10736 1.499539,-2.793103 0.698971,1.907944 8.684912,23.227136 8.987413,23.99271 0.109596,0.277371 0.249373,0.50431 0.310611,0.50431 0.06124,0 2.716838,-2.804043 5.901327,-6.231207 l 5.789979,-6.231206 0.04399,-1.506814 0.04399,-1.506814 -6.390549,-13.832355 -6.390549,-13.832352 -7.81357,0.0402 -7.813571,0.0402 -4.358357,9 c -16.94909,34.999842 -23.571391,48.778591 -23.571391,49.044015 0,0.122774 0.05237,0.222875 0.116379,0.222447 0.06401,-4.65e-4 2.909483,-0.379252 6.323276,-0.841832 z"
     id="path1371" />
</svg>
