<svg width="128" height="126" viewBox="0 0 128 126" fill="none" xmlns="http://www.w3.org/2000/svg">
<rect width="128" height="128" rx="10" fill="#030212"/>
<path d="M58.1465 23.1217L73.4222 23.1219L86.244 50.9238L86.244 53.4513L74.5367 66.0885L65.1709 40.8141L48.7806 78.7257L30.049 81.2529L58.1465 23.1217Z" fill="white"/>
<path d="M81.561 81.2529L89.7562 76.198L95.6098 68.6157L112 104H93.2684L81.561 81.2529Z" fill="white"/>
<path d="M25.3661 93.8901L32.4905 96.0942H40.6652L37.1734 103.677H20.7832L25.3661 93.8901Z" fill="white"/>
<path d="M16 71.1434L20.6829 66.0886L23.0244 63.5611V66.0886L20.6829 68.616L18.3415 73.6709L20.6829 78.7258L25.3659 81.2532L32.3902 83.7807H44.0976L65.1707 76.1983L81.561 63.5611L93.2683 50.9239L95.6098 48.3965L90.9268 45.869L107.317 35.7593V55.9788L102.634 53.4514L95.6098 63.5611L83.9024 73.6709L69.8537 83.7807L55.8049 88.8355L44.0976 91.363H32.3902L23.0244 88.8355L16 81.2532V71.1434Z" fill="white"/>
</svg>
