<svg xmlns="http://www.w3.org/2000/svg" version="1.1" viewBox="-5.0 -10.0 110.0 135.0">
    <path
        d="m93.578 26.711-7.2461-16.703c-0.98828-2.2852-3.2383-3.7578-5.7344-3.7578h-58.465c-4.1523 0-7.8984 2.4609-9.5586 6.2695l-6.1602 14.191v0.011718c-0.10937 0.25-0.17187 0.52734-0.17187 0.82031v4.582c0 5.7461 4.6719 10.418 10.418 10.418 3.4219 0 6.4336-1.6797 8.332-4.2305 1.8984 2.5508 4.9141 4.2305 8.332 4.2305 3.4219 0 6.4336-1.6797 8.332-4.2305 1.8984 2.5508 4.9141 4.2305 8.332 4.2305 3.4219 0 6.4336-1.6797 8.332-4.2305 1.8984 2.5508 4.9141 4.2305 8.332 4.2305 3.4219 0 6.4336-1.6797 8.332-4.2305 1.8984 2.5508 4.9141 4.2305 8.332 4.2305 0.60156 0 1.1797-0.078125 1.75-0.17578v45.133c0 1.1445-0.9375 2.082-2.082 2.082l-35.234 0.003907v-26.082c0-3.4453-2.8047-6.25-6.25-6.25h-14.832c-3.4453 0-6.25 2.8047-6.25 6.25v26.082h-3.418c-1.1445 0-2.082-0.9375-2.082-2.082v-23.457c0-1.1484-0.93359-2.082-2.082-2.082-1.1484 0-2.082 0.93359-2.082 2.082v23.457c0 3.4453 2.8047 6.25 6.25 6.25h66c3.4453 0 6.25-2.8047 6.25-6.25l-0.003906-46.82c2.7109-1.8828 4.5-5.0117 4.5-8.5586v-4.582c0-0.29297-0.0625-0.56641-0.17188-0.82031v-0.011718zm-70.66 5.4141c0 3.4453-2.8047 6.25-6.25 6.25-3.4453 0-6.25-2.8047-6.25-6.25v-2.5h12.5zm0.63672-6.668h-12.047l4.8945-11.277c0.98828-2.2891 3.2422-3.7617 5.7344-3.7617h7.0273l-5.6133 15.043zm16.027 6.668c0 3.4453-2.8047 6.25-6.25 6.25-3.4453 0-6.25-2.8047-6.25-6.25v-2.5h12.5zm0.35938-6.668h-11.938l5.6133-15.043h9.1641l-2.8359 15.043zm7.0742-15.043h6.0391l2.7773 15.043h-11.652zm9.2344 21.707c0 3.4453-2.8047 6.25-6.25 6.25s-6.25-2.8047-6.25-6.25v-2.5h12.5zm-12.668 57.457-19 0.003906v-26.082c0-1.1445 0.9375-2.082 2.082-2.082h14.832c1.1445 0 2.082 0.9375 2.082 2.082v26.082zm13.707-79.16h9.1797l5.5469 15.043h-11.945l-2.7773-15.043zm15.629 21.707c0 3.4453-2.8047 6.25-6.25 6.25-3.4453 0-6.25-2.8047-6.25-6.25v-2.5h12.5zm3.5352-6.668-5.5469-15.043h9.6953c0.82813 0 1.5781 0.49219 1.9102 1.2539l5.9883 13.793h-12.043zm13.133 6.668c0 3.4453-2.8047 6.25-6.25 6.25-3.4453 0-6.25-2.8047-6.25-6.25v-2.5h12.5z" />
    <path
        d="m12.832 57.039c1.1484 0 2.082-0.93359 2.082-2.082v-6.668c0-1.1484-0.93359-2.082-2.082-2.082-1.1484 0-2.082 0.93359-2.082 2.082v6.668c0 1.1484 0.93359 2.082 2.082 2.082z" />
    <path
        d="m78.551 80.957c1.1484 0 2.082-0.93359 2.082-2.082v-17.207c0-1.1484-0.93359-2.082-2.082-2.082h-22.633c-1.1484 0-2.082 0.93359-2.082 2.082v17.207c0 1.1484 0.93359 2.082 2.082 2.082zm-20.551-17.207h18.465v13.043h-18.465z" />
</svg>