<svg width="252" height="240" viewBox="0 0 252 240" fill="none" xmlns="http://www.w3.org/2000/svg">
<mask id="mask0_304_2172" style="mask-type:luminance" maskUnits="userSpaceOnUse" x="0" y="0" width="252" height="240">
<path d="M0.5 0H251.5V240H0.5V0Z" fill="white"/>
</mask>
<g mask="url(#mask0_304_2172)">
<mask id="mask1_304_2172" style="mask-type:luminance" maskUnits="userSpaceOnUse" x="0" y="0" width="252" height="240">
<path d="M0.5 0H251.5V240H0.5V0Z" fill="white"/>
</mask>
<g mask="url(#mask1_304_2172)">
<path d="M122.051 224.284C183.939 224.284 234.108 174.076 234.108 112.142C234.108 50.2077 183.939 0 122.051 0C60.1638 0 9.99414 50.2077 9.99414 112.142C9.99414 174.076 60.1638 224.284 122.051 224.284Z" fill="#FCFCFD"/>
<path d="M49.9285 156.211L45.0485 167.411H43.0005L38.1045 156.211H40.3605L44.0885 164.851L47.8485 156.211H49.9285ZM54.1185 167.523C53.2535 167.523 52.4755 167.336 51.7815 166.963C51.105 166.605 50.5403 166.068 50.1495 165.411C49.7655 164.739 49.5735 163.982 49.5735 163.139C49.5735 162.296 49.7655 161.544 50.1495 160.883C50.5403 160.225 51.105 159.688 51.7815 159.331C52.4755 158.958 53.2535 158.771 54.1175 158.771C54.9925 158.771 55.7765 158.958 56.4695 159.331C57.1436 159.686 57.7038 160.224 58.0855 160.883C58.4805 161.544 58.6775 162.296 58.6775 163.139C58.6775 163.982 58.4805 164.739 58.0855 165.411C57.7038 166.07 57.1436 166.608 56.4695 166.963C55.7765 167.336 54.9935 167.523 54.1185 167.523ZM54.1185 165.811C54.8535 165.811 55.4615 165.566 55.9415 165.075C56.4215 164.584 56.6615 163.939 56.6615 163.139C56.6615 162.339 56.4215 161.694 55.9415 161.203C55.4615 160.712 54.8535 160.467 54.1175 160.467C53.3815 160.467 52.7735 160.712 52.2935 161.203C51.8245 161.694 51.5895 162.339 51.5895 163.139C51.5895 163.939 51.8245 164.584 52.2935 165.075C52.7735 165.566 53.3825 165.811 54.1185 165.811ZM65.7265 166.947C65.4715 167.149 65.1773 167.296 64.8625 167.379C64.5191 167.477 64.1635 167.525 63.8065 167.523C62.8675 167.523 62.1425 167.278 61.6305 166.787C61.1185 166.296 60.8625 165.582 60.8625 164.643V160.531H59.4545V158.931H60.8625V156.979H62.8625V158.931H65.1505V160.531H62.8625V164.595C62.8625 165.011 62.9635 165.331 63.1665 165.555C63.3695 165.768 63.6625 165.875 64.0465 165.875C64.4945 165.875 64.8675 165.758 65.1665 165.523L65.7265 166.947ZM69.2765 160.115C69.8515 159.219 70.8645 158.771 72.3165 158.771V160.675C72.1633 160.645 72.0076 160.628 71.8515 160.627C71.0725 160.627 70.4645 160.856 70.0275 161.315C69.5905 161.763 69.3715 162.414 69.3715 163.267V167.411H67.3715V158.867H69.2755L69.2765 160.115ZM81.9665 163.187C81.9665 163.326 81.9555 163.523 81.9345 163.779H75.2305C75.3475 164.408 75.6505 164.91 76.1425 165.283C76.6425 165.646 77.2625 165.827 77.9985 165.827C78.9365 165.827 79.7105 165.518 80.3185 164.899L81.3905 166.131C81.0065 166.59 80.5205 166.936 79.9345 167.171C79.3475 167.406 78.6865 167.523 77.9505 167.523C77.0105 167.523 76.1845 167.336 75.4705 166.963C74.7806 166.613 74.2037 166.075 73.8065 165.411C73.4225 164.739 73.2305 163.982 73.2305 163.139C73.2305 162.307 73.4165 161.56 73.7905 160.899C74.1622 160.239 74.7108 159.696 75.3745 159.331C76.0465 158.958 76.8035 158.771 77.6465 158.771C78.4785 158.771 79.2195 158.958 79.8705 159.331C80.524 159.686 81.0583 160.226 81.4065 160.883C81.7795 161.544 81.9665 162.312 81.9665 163.187ZM77.6465 160.371C77.0065 160.371 76.4625 160.563 76.0145 160.947C75.5765 161.32 75.3105 161.822 75.2145 162.451H80.0625C79.9765 161.832 79.7155 161.331 79.2785 160.947C78.8405 160.563 78.2965 160.371 77.6465 160.371ZM93.0455 158.771C93.8775 158.771 94.6185 158.952 95.2695 159.315C95.9221 159.669 96.4603 160.202 96.8215 160.851C97.1945 161.512 97.3815 162.275 97.3815 163.139C97.3815 164.003 97.1945 164.771 96.8215 165.443C96.4603 166.092 95.9221 166.624 95.2695 166.979C94.6185 167.342 93.8775 167.523 93.0455 167.523C91.8935 167.523 90.9815 167.139 90.3095 166.371V170.515H88.3095V158.867H90.2135V159.987C90.5435 159.582 90.9495 159.278 91.4295 159.075C91.9428 158.868 92.492 158.764 93.0455 158.771ZM92.8215 165.811C93.5575 165.811 94.1595 165.566 94.6295 165.075C95.1095 164.584 95.3495 163.939 95.3495 163.139C95.3495 162.339 95.1095 161.694 94.6295 161.203C94.1595 160.712 93.5575 160.467 92.8215 160.467C92.3415 160.467 91.9095 160.579 91.5255 160.803C91.139 161.019 90.8225 161.341 90.6135 161.731C90.3895 162.136 90.2775 162.606 90.2775 163.139C90.2775 163.672 90.3895 164.142 90.6135 164.547C90.8375 164.952 91.1415 165.267 91.5255 165.491C91.9095 165.704 92.3415 165.811 92.8215 165.811ZM102.432 158.771C103.691 158.771 104.651 159.075 105.312 159.683C105.984 160.28 106.32 161.187 106.32 162.403V167.411H104.432V166.371C104.187 166.744 103.835 167.032 103.376 167.235C102.928 167.427 102.384 167.523 101.744 167.523C101.104 167.523 100.544 167.416 100.064 167.203C99.5845 166.979 99.2115 166.675 98.9445 166.291C98.6884 165.896 98.5548 165.434 98.5605 164.963C98.5605 164.195 98.8435 163.582 99.4085 163.123C99.9845 162.654 100.885 162.419 102.112 162.419H104.32V162.291C104.32 161.694 104.139 161.235 103.776 160.915C103.424 160.595 102.896 160.435 102.192 160.435C101.712 160.435 101.237 160.51 100.768 160.659C100.343 160.79 99.9462 161.002 99.6005 161.283L98.8165 159.827C99.3017 159.467 99.8497 159.201 100.432 159.043C101.083 158.859 101.756 158.767 102.432 158.771ZM102.16 166.067C102.661 166.067 103.104 165.955 103.488 165.731C103.883 165.496 104.16 165.166 104.32 164.739V163.747H102.256C101.104 163.747 100.528 164.126 100.528 164.883C100.528 165.246 100.672 165.534 100.96 165.747C101.248 165.96 101.648 166.067 102.16 166.067ZM113.735 158.771C114.812 158.771 115.676 159.086 116.327 159.715C116.978 160.344 117.303 161.278 117.303 162.515V167.411H115.303V162.771C115.303 162.024 115.127 161.464 114.775 161.091C114.424 160.707 113.922 160.515 113.271 160.515C112.535 160.515 111.953 160.739 111.527 161.187C111.1 161.624 110.887 162.259 110.887 163.091V167.411H108.887V158.867H110.791V159.971C111.121 159.576 111.537 159.278 112.039 159.075C112.54 158.872 113.105 158.771 113.735 158.771ZM119.84 158.867H121.84V167.411H119.84V158.867ZM120.848 157.459C120.512 157.469 120.186 157.348 119.936 157.123C119.818 157.013 119.724 156.879 119.66 156.73C119.597 156.581 119.565 156.421 119.568 156.259C119.568 155.918 119.69 155.635 119.936 155.411C120.181 155.176 120.485 155.059 120.848 155.059C121.21 155.059 121.514 155.171 121.76 155.395C122.006 155.608 122.128 155.88 122.128 156.211C122.128 156.563 122.006 156.862 121.76 157.107C121.525 157.342 121.221 157.459 120.848 157.459ZM132.497 163.187C132.497 163.326 132.486 163.523 132.465 163.779H125.761C125.878 164.408 126.182 164.91 126.673 165.283C127.174 165.646 127.793 165.827 128.529 165.827C129.467 165.827 130.241 165.518 130.849 164.899L131.921 166.131C131.537 166.59 131.051 166.936 130.465 167.171C129.878 167.406 129.217 167.523 128.481 167.523C127.542 167.523 126.715 167.336 126.001 166.963C125.311 166.613 124.735 166.075 124.337 165.411C123.953 164.739 123.761 163.982 123.761 163.139C123.761 162.307 123.947 161.56 124.321 160.899C124.693 160.239 125.242 159.696 125.905 159.331C126.577 158.958 127.334 158.771 128.177 158.771C129.009 158.771 129.75 158.958 130.401 159.331C131.062 159.694 131.574 160.211 131.937 160.883C132.31 161.544 132.497 162.312 132.497 163.187ZM128.177 160.371C127.537 160.371 126.993 160.563 126.545 160.947C126.107 161.32 125.841 161.822 125.745 162.451H130.593C130.507 161.832 130.246 161.331 129.809 160.947C129.371 160.563 128.827 160.371 128.177 160.371ZM136.322 160.115C136.898 159.219 137.911 158.771 139.362 158.771V160.675C139.21 160.645 139.054 160.629 138.898 160.627C138.119 160.627 137.511 160.856 137.074 161.315C136.637 161.763 136.418 162.414 136.418 163.267V167.411H134.418V158.867H136.322V160.115ZM153.591 163.187C153.591 163.326 153.58 163.523 153.559 163.779H146.855C146.972 164.408 147.276 164.91 147.767 165.283C148.268 165.646 148.887 165.827 149.623 165.827C150.561 165.827 151.335 165.518 151.943 164.899L153.015 166.131C152.631 166.59 152.145 166.936 151.559 167.171C150.972 167.406 150.311 167.523 149.575 167.523C148.636 167.523 147.809 167.336 147.095 166.963C146.405 166.613 145.829 166.075 145.431 165.411C145.047 164.739 144.855 163.982 144.855 163.139C144.855 162.307 145.041 161.56 145.415 160.899C145.787 160.239 146.336 159.696 146.999 159.331C147.671 158.958 148.428 158.771 149.271 158.771C150.103 158.771 150.844 158.958 151.495 159.331C152.156 159.694 152.668 160.211 153.031 160.883C153.404 161.544 153.591 162.312 153.591 163.187ZM149.271 160.371C148.631 160.371 148.087 160.563 147.639 160.947C147.201 161.32 146.935 161.822 146.839 162.451H151.687C151.601 161.832 151.34 161.331 150.903 160.947C150.465 160.563 149.921 160.371 149.271 160.371ZM158.152 167.523C157.466 167.524 156.783 167.432 156.12 167.251C155.458 167.07 154.93 166.84 154.536 166.563L155.304 165.043C155.73 165.318 156.193 165.528 156.68 165.667C157.201 165.813 157.74 165.888 158.28 165.891C159.474 165.891 160.072 165.576 160.072 164.947C160.072 164.648 159.917 164.44 159.608 164.323C159.309 164.206 158.824 164.094 158.152 163.987C157.448 163.88 156.872 163.758 156.424 163.619C155.986 163.48 155.59 163.232 155.272 162.899C154.952 162.547 154.792 162.062 154.792 161.443C154.792 160.632 155.128 159.987 155.8 159.507C156.482 159.016 157.4 158.771 158.552 158.771C159.138 158.771 159.725 158.84 160.312 158.979C160.898 159.107 161.378 159.283 161.752 159.507L160.984 161.027C160.258 160.6 159.442 160.387 158.536 160.387C157.949 160.387 157.501 160.478 157.192 160.659C156.893 160.83 156.744 161.059 156.744 161.347C156.744 161.667 156.904 161.896 157.224 162.035C157.554 162.163 158.061 162.286 158.744 162.403C159.426 162.51 159.986 162.632 160.424 162.771C160.861 162.91 161.234 163.144 161.544 163.475C161.864 163.806 162.024 164.275 162.024 164.883C162.024 165.683 161.677 166.323 160.984 166.803C160.29 167.283 159.346 167.523 158.152 167.523ZM168.882 166.947C168.627 167.149 168.333 167.296 168.018 167.379C167.675 167.476 167.32 167.525 166.962 167.523C166.023 167.523 165.298 167.278 164.786 166.787C164.274 166.296 164.018 165.582 164.018 164.643V160.531H162.61V158.931H164.018V156.979H166.018V158.931H168.306V160.531H166.018V164.595C166.018 165.011 166.119 165.331 166.322 165.555C166.525 165.768 166.818 165.875 167.202 165.875C167.65 165.875 168.023 165.758 168.322 165.523L168.882 166.947ZM182.949 158.867L179.285 167.411H177.221L173.557 158.867H175.637L178.293 165.203L181.029 158.867H182.949ZM184.199 158.867H186.199V167.411H184.199V158.867ZM185.207 157.459C184.845 157.459 184.541 157.347 184.295 157.123C184.177 157.013 184.083 156.879 184.019 156.73C183.956 156.581 183.925 156.421 183.927 156.259C183.924 156.099 183.955 155.941 184.018 155.794C184.082 155.648 184.176 155.517 184.295 155.411C184.541 155.176 184.845 155.059 185.207 155.059C185.544 155.049 185.87 155.169 186.119 155.395C186.365 155.608 186.487 155.88 186.487 156.211C186.487 156.563 186.365 156.862 186.119 157.107C185.885 157.342 185.581 157.459 185.207 157.459ZM197.192 155.539V167.411H195.272V166.307C194.942 166.712 194.531 167.016 194.04 167.219C193.533 167.427 192.989 167.53 192.44 167.523C191.619 167.523 190.878 167.342 190.216 166.979C189.571 166.62 189.039 166.088 188.68 165.443C188.307 164.771 188.12 164.003 188.12 163.139C188.12 162.275 188.307 161.512 188.68 160.851C189.039 160.205 189.571 159.673 190.216 159.315C190.878 158.952 191.619 158.771 192.44 158.771C193.006 158.771 193.523 158.867 193.992 159.059C194.462 159.251 194.862 159.539 195.192 159.923V155.539H197.192ZM192.68 165.811C193.16 165.811 193.592 165.704 193.976 165.491C194.361 165.266 194.677 164.939 194.888 164.547C195.112 164.142 195.224 163.672 195.224 163.139C195.224 162.606 195.112 162.136 194.888 161.731C194.679 161.341 194.363 161.019 193.976 160.803C193.583 160.576 193.135 160.46 192.68 160.467C192.2 160.467 191.768 160.579 191.384 160.803C190.998 161.019 190.682 161.341 190.472 161.731C190.248 162.136 190.136 162.606 190.136 163.139C190.136 163.672 190.248 164.142 190.472 164.547C190.696 164.952 191 165.267 191.384 165.491C191.768 165.704 192.2 165.811 192.68 165.811ZM207.841 163.187C207.841 163.326 207.83 163.523 207.809 163.779H201.105C201.222 164.408 201.526 164.91 202.017 165.283C202.518 165.646 203.137 165.827 203.873 165.827C204.811 165.827 205.585 165.518 206.193 164.899L207.265 166.131C206.881 166.59 206.395 166.936 205.809 167.171C205.222 167.406 204.561 167.523 203.825 167.523C202.886 167.523 202.059 167.336 201.345 166.963C200.655 166.613 200.079 166.075 199.681 165.411C199.297 164.739 199.105 163.982 199.105 163.139C199.105 162.307 199.291 161.56 199.665 160.899C200.037 160.239 200.586 159.696 201.249 159.331C201.921 158.958 202.678 158.771 203.521 158.771C204.353 158.771 205.094 158.958 205.745 159.331C206.406 159.694 206.918 160.211 207.281 160.883C207.654 161.544 207.841 162.312 207.841 163.187ZM203.521 160.371C202.881 160.371 202.337 160.563 201.889 160.947C201.451 161.32 201.185 161.822 201.089 162.451H205.937C205.851 161.832 205.59 161.331 205.153 160.947C204.715 160.563 204.171 160.371 203.521 160.371ZM137.285 74.0698C137.285 69.9018 137.379 66.6878 133.916 63.2638C132.082 61.4599 129.702 60.3149 127.147 60.0078C131.793 64.3008 132.117 68.5308 132.117 74.0698H137.285ZM159.122 78.8018C159.534 78.9557 159.885 79.2389 160.123 79.609C160.361 79.9791 160.472 80.4161 160.44 80.8548L156.6 134.58C156.573 134.971 156.433 135.346 156.197 135.66C155.962 135.974 155.641 136.213 155.272 136.349C153.483 137.072 144.39 141.364 143.375 141.364L91.9415 141.375C91.4086 141.374 90.8972 141.165 90.5175 140.791C90.1378 140.417 89.9202 139.909 89.9115 139.376L85.4015 76.2478C85.3175 75.0958 86.2075 74.1008 87.4215 74.0698H100.969C100.969 68.6988 101.209 64.6678 105.551 60.3748C112.52 53.5058 120.398 56.5528 121.162 56.5528C121.915 56.5528 129.794 53.5058 136.761 60.3748C141.114 64.6678 141.344 68.6988 141.344 74.0698C142.829 74.0698 147.936 73.8708 148.857 74.3098L159.122 78.8018ZM152.635 133.071L156.286 81.9948L148.595 79.1148L144.526 136.127L152.635 133.071ZM128.047 74.0698C128.047 69.9018 128.152 66.6878 124.678 63.2638C123.66 62.2654 122.469 61.4603 121.163 60.8878C117.082 62.6578 114.278 66.6678 114.278 71.2638V74.0708L128.047 74.0698ZM110.209 74.0698C110.209 68.5298 110.523 64.3008 115.168 60.0078C109.497 60.6778 105.039 65.4628 105.039 71.2638V74.0708L110.209 74.0698ZM144.599 78.1428H89.6095L93.8365 137.301H140.362L144.599 78.1428Z" fill="#293847"/>
<path d="M105.756 85.8872C110.985 85.8872 110.985 93.7372 105.756 93.7372C100.526 93.7372 100.526 85.8872 105.756 85.8872ZM128.847 85.8872C134.077 85.8872 134.077 93.7372 128.847 93.7372C123.618 93.7372 123.618 85.8872 128.847 85.8872Z" fill="#293847"/>
<path d="M113.603 101.247H121.929" stroke="#293847" stroke-width="4" stroke-linecap="round"/>
<path d="M39.6634 133.278C39.6637 133.971 39.3888 134.636 38.8992 135.126C38.4095 135.616 37.7453 135.892 37.0524 135.892C36.7093 135.892 36.3695 135.824 36.0526 135.693C35.7356 135.561 35.4476 135.369 35.2051 135.126C34.9625 134.883 34.7701 134.595 34.639 134.278C34.5078 133.961 34.4403 133.621 34.4404 133.278C34.4402 132.935 34.5075 132.595 34.6387 132.278C34.7698 131.961 34.9621 131.672 35.2047 131.429C35.4473 131.187 35.7353 130.994 36.0523 130.862C36.3694 130.731 36.7092 130.663 37.0524 130.663C37.3956 130.663 37.7353 130.731 38.0522 130.863C38.3692 130.994 38.6571 131.187 38.8995 131.43C39.142 131.673 39.3342 131.961 39.4653 132.278C39.5964 132.595 39.6637 132.935 39.6634 133.278Z" stroke="#B6C2CD" stroke-width="1.5"/>
<path d="M76.6967 56.995C76.1817 56.644 75.7517 56.394 75.3597 56.07C71.3917 52.822 68.2727 48.73 65.4847 44.337C65.1587 43.821 64.8887 43.223 64.7787 42.623C64.7187 42.3 64.9287 41.768 65.1887 41.513C65.3887 41.323 65.9077 41.316 66.1497 41.458C66.6167 41.72 67.0587 42.09 67.4147 42.516C69.7731 45.3183 72.1132 48.136 74.4347 50.969C75.2987 52.032 76.1387 53.13 76.9837 54.215C77.2707 54.574 77.5367 54.955 77.7737 55.339C78.0507 55.766 78.1197 56.294 77.7157 56.658C77.4477 56.896 77.2177 57.176 76.6967 56.995ZM100.631 44.913C100.322 45.497 100.002 46.192 99.6197 46.837C98.1027 49.377 96.5857 51.917 95.0497 54.437C94.7092 54.9777 94.305 55.4756 93.8457 55.92C93.2577 56.508 92.6877 56.583 92.1957 56.283C91.7027 55.983 91.5317 55.405 91.7997 54.591C91.9797 54.034 92.1957 53.447 92.4967 52.961C94.4997 49.783 96.5267 46.613 98.5607 43.461C98.7887 43.107 99.0927 42.766 99.4317 42.553C100.271 42.009 101.102 42.556 100.998 43.586C100.951 43.987 100.769 44.399 100.631 44.913ZM56.3027 70.202C55.7637 69.958 55.2527 69.636 54.7607 69.292C54.3237 68.983 54.1057 68.5039 54.2587 67.9089C54.3917 67.4089 55.0247 67.038 55.6437 67.166C56.4727 67.338 57.3087 67.528 58.0887 67.841C60.4397 68.787 62.7857 69.7879 65.1157 70.7979C65.8857 71.1379 66.6397 71.528 67.3837 71.945C67.6387 72.091 67.8867 72.292 68.0417 72.5329C68.4897 73.1929 68.1577 73.999 67.3947 74.094C66.9657 74.147 66.4887 74.068 66.0867 73.928C64.7377 73.532 58.2097 71.051 56.3027 70.202Z" fill="#7A8999"/>
<path opacity="0.4" d="M199.48 106.034C199.608 105.915 199.766 105.832 199.936 105.793C200.107 105.753 200.285 105.76 200.452 105.811C200.62 105.862 200.771 105.956 200.89 106.084C201.01 106.212 201.094 106.369 201.134 106.539L203.68 117.398C203.72 117.569 203.714 117.748 203.663 117.916C203.613 118.084 203.518 118.236 203.39 118.356C203.262 118.476 203.105 118.56 202.934 118.6C202.763 118.64 202.584 118.634 202.416 118.583L191.704 115.316C191.536 115.265 191.384 115.171 191.264 115.042C191.143 114.913 191.059 114.756 191.02 114.584C190.98 114.413 190.987 114.234 191.038 114.066C191.09 113.897 191.185 113.746 191.314 113.626L199.48 106.034Z" fill="#B6C2CD"/>
<path d="M57.1924 226.862C60.0824 222.502 68.7724 214.179 80.4224 215.767C92.0724 217.354 99.9164 206.813 102.381 201.344" stroke="#B6C2CD" stroke-width="3" stroke-dasharray="8 8"/>
<mask id="mask2_304_2172" style="mask-type:luminance" maskUnits="userSpaceOnUse" x="152" y="180" width="55" height="54">
<path d="M165.243 180.205L206.051 192.628L193.637 233.467L152.829 221.044L165.243 180.205Z" fill="white"/>
</mask>
<g mask="url(#mask2_304_2172)">
<path d="M192.356 219.365L197.137 203.636C197.205 203.409 197.212 203.167 197.156 202.936C197.101 202.706 196.986 202.493 196.823 202.321L185.196 190.153C185.04 189.986 184.844 189.864 184.625 189.797C184.407 189.731 184.175 189.723 183.953 189.775L167.525 193.401C167.294 193.453 167.08 193.566 166.905 193.727C166.731 193.888 166.602 194.092 166.532 194.319L161.75 210.048C161.683 210.276 161.676 210.517 161.731 210.748C161.786 210.979 161.901 211.191 162.065 211.363L173.692 223.53C173.847 223.697 174.044 223.82 174.263 223.886C174.481 223.953 174.713 223.961 174.935 223.909L191.363 220.283C191.594 220.231 191.808 220.119 191.983 219.958C192.157 219.796 192.286 219.592 192.356 219.365Z" stroke="#B6C2CD" stroke-width="2" stroke-linecap="round" stroke-linejoin="round"/>
<path d="M186.066 213.128L188.588 204.833L175.72 191.591" stroke="#B6C2CD" stroke-width="2" stroke-linecap="round" stroke-linejoin="round"/>
<path d="M197.161 202.929L179.588 206.886L166.906 193.718M179.587 206.885L174.265 223.879" stroke="#B6C2CD" stroke-width="2" stroke-linecap="round" stroke-linejoin="round"/>
</g>
<path d="M209.297 26.9738C209.626 25.8217 210.18 24.7461 210.926 23.809C211.672 22.8719 212.597 22.0918 213.646 21.5138C215.775 20.3416 218.281 20.0587 220.617 20.7268C222.955 21.3923 224.934 22.9544 226.125 25.0728C226.713 26.1174 227.087 27.2679 227.228 28.458C227.368 29.648 227.272 30.8541 226.944 32.0068L179.883 49.8548C179.548 49.9804 179.247 50.1838 179.005 50.4483C178.763 50.7128 178.588 51.0309 178.493 51.3765C178.398 51.722 178.387 52.0851 178.459 52.436C178.532 52.7869 178.687 53.1155 178.911 53.3948C179.21 53.7708 179.62 54.0448 180.083 54.1758L237.438 70.5358C237.901 70.6678 238.393 70.6518 238.846 70.4898C239.297 70.3287 239.685 70.0296 239.956 69.6349C240.227 69.2403 240.366 68.7703 240.354 68.2918C240.341 67.8125 240.177 67.3497 239.885 66.9688L216.249 36.0638" stroke="#B6C2CD" stroke-width="2.5" stroke-linecap="round" stroke-linejoin="round"/>
<path d="M3.83243 80.4631L23.8944 71.1331M14.3204 103.05L34.3824 93.7201M19.0554 67.2801L4.01043 74.2781C3.34525 74.5876 2.83015 75.1486 2.57832 75.8377C2.32649 76.5268 2.35855 77.2877 2.66743 77.9531L15.4874 105.56C15.6403 105.89 15.8566 106.186 16.124 106.432C16.3915 106.678 16.7048 106.869 17.046 106.993C17.3872 107.118 17.7497 107.174 18.1127 107.159C18.4757 107.143 18.8321 107.056 19.1614 106.903L34.2074 99.9051C34.8727 99.5954 35.3878 99.0343 35.6394 98.3449C35.8911 97.6556 35.8587 96.8946 35.5494 96.2291L22.7294 68.6231C22.5767 68.2936 22.3605 67.9974 22.0931 67.7514C21.8258 67.5055 21.5126 67.3146 21.1715 67.1898C20.8304 67.065 20.468 67.0086 20.1051 67.0239C19.7422 67.0393 19.3858 67.126 19.0564 67.2791L19.0554 67.2801Z" stroke="#B6C2CD" stroke-width="2" stroke-linecap="round" stroke-linejoin="round"/>
</g>
<path d="M151.476 102.521C152.185 102.416 154.84 103.436 157.859 106.651C161.635 110.673 164.467 116.218 165.541 118.781C165.799 119.398 166.002 120.006 166.106 120.876C166.21 121.747 166.21 122.861 166.21 124.009" stroke="#293847" stroke-width="5" stroke-linecap="round"/>
<path d="M131.215 139.665C131.215 139.766 131.215 139.867 131.215 141.743C131.215 143.618 131.215 147.265 131.165 149.347C131.114 151.428 131.013 151.833 130.908 153.171" stroke="#293847" stroke-width="5" stroke-linecap="round"/>
<path d="M106.657 139.972C106.657 142.406 106.86 147.941 107.524 149.789C107.986 151.428 108.293 152.656 108.447 153.472C108.499 153.884 108.499 154.289 108.499 154.706" stroke="#293847" stroke-width="5" stroke-linecap="round"/>
<path d="M88.5065 104.527C88.1007 104.527 87.1834 104.932 86.3656 105.597C85.5786 106.237 85.0884 107.076 84.3495 108.324C83.0423 110.534 82.3319 113.094 82.0501 114.858C81.8509 116.105 81.0578 118.292 80.8242 119.889C80.6678 120.959 80.4942 122.383 80.3648 123.539C80.2369 124.586 80.1359 125.504 79.9827 126.116C79.9307 126.423 79.9307 126.727 79.9307 127.039" stroke="#293847" stroke-width="5" stroke-linecap="round"/>
</g>
</svg>
