<svg width="36" height="35" viewBox="0 0 36 35" fill="none" xmlns="http://www.w3.org/2000/svg">
<path d="M18.3298 1.9948C18.2597 1.84624 18.1514 1.72119 18.0172 1.63376C17.8829 1.54633 17.728 1.5 17.57 1.5C17.4119 1.5 17.5708 28.9146 17.5708 28.9146C17.5708 28.9146 18.6621 29.0546 19.1489 29.3227L26.5347 33.3967C26.675 33.4745 26.8333 33.5096 26.9915 33.4978C27.1498 33.486 27.3018 33.4278 27.4301 33.3299C27.5584 33.232 27.658 33.0983 27.7175 32.944C27.777 32.7897 27.7939 32.621 27.7665 32.457L26.3572 23.8343C26.2641 23.2651 26.3044 22.6806 26.4747 22.1313C26.645 21.5821 26.9401 21.0845 27.3346 20.6816L33.3111 14.579C33.4253 14.4633 33.5063 14.3163 33.5447 14.1547C33.5832 13.993 33.5776 13.8233 33.5285 13.6649C33.4795 13.5065 33.3891 13.3656 33.2675 13.2585C33.1459 13.1514 32.998 13.0822 32.8408 13.0589L24.5783 11.792C24.034 11.709 23.5171 11.4884 23.072 11.1494C22.627 10.8103 22.2672 10.3629 22.0236 9.84569L18.3298 1.9948Z" stroke="#FFCA00" stroke-width="3" stroke-linecap="round" stroke-linejoin="round"/>
<path d="M16.6737 1.9948C16.7435 1.84624 16.8513 1.72119 16.985 1.63376C17.1187 1.54633 17.2729 1.5 17.4303 1.5C17.5876 1.5 17.4295 28.9146 17.4295 28.9146C17.4295 28.9146 16.3429 29.0546 15.8582 29.3227L8.50455 33.3967C8.36492 33.4745 8.20735 33.5096 8.04975 33.4978C7.89215 33.486 7.74086 33.4278 7.61309 33.3299C7.48531 33.232 7.38618 33.0983 7.32697 32.944C7.26776 32.7897 7.25084 32.621 7.27814 32.457L8.68135 23.8343C8.77404 23.2651 8.73388 22.6806 8.56434 22.1313C8.3948 21.5821 8.10097 21.0845 7.70818 20.6816L1.75771 14.579C1.64397 14.4633 1.56338 14.3163 1.5251 14.1547C1.48683 13.993 1.49241 13.8233 1.54122 13.6649C1.59002 13.5065 1.68009 13.3657 1.80115 13.2585C1.92221 13.1514 2.06941 13.0822 2.22597 13.0589L10.4525 11.792C10.9944 11.709 11.5091 11.4884 11.9522 11.1494C12.3953 10.8103 12.7535 10.3629 12.9961 9.84569L16.6737 1.9948Z" fill="#FFCA00" stroke="#FFCA00" stroke-width="3" stroke-linecap="round" stroke-linejoin="round"/>
</svg>
