<svg width="35" height="35" viewBox="0 0 35 35" fill="none" xmlns="http://www.w3.org/2000/svg">
<path d="M16.7415 1.99479C16.8116 1.84623 16.9199 1.72118 17.0542 1.63376C17.1885 1.54633 17.3434 1.5 17.5014 1.5C17.6595 1.5 17.8144 1.54633 17.9487 1.63376C18.083 1.72118 18.1913 1.84623 18.2614 1.99479L21.957 9.84543C22.2005 10.3622 22.5599 10.8092 23.0043 11.1482C23.4488 11.4872 23.9651 11.708 24.5088 11.7917L32.7737 13.0602C32.9303 13.084 33.0774 13.1533 33.1984 13.2602C33.3194 13.3671 33.4095 13.5074 33.4584 13.6652C33.5074 13.823 33.5132 13.9921 33.4753 14.1532C33.4374 14.3143 33.3573 14.4611 33.244 14.577L27.267 20.681C26.8728 21.0838 26.5779 21.5811 26.4076 22.13C26.2373 22.6789 26.1967 23.263 26.2894 23.832L27.7005 32.4561C27.7282 32.6202 27.7113 32.7892 27.6517 32.9438C27.5922 33.0984 27.4924 33.2323 27.3638 33.3302C27.2352 33.4282 27.0829 33.4863 26.9244 33.4979C26.7658 33.5094 26.6073 33.474 26.467 33.3957L19.0789 29.3219C18.5921 29.0538 18.0505 28.9137 17.5006 28.9137C16.9508 28.9137 16.4092 29.0538 15.9224 29.3219L8.53584 33.3957C8.39559 33.4736 8.23731 33.5086 8.07901 33.4968C7.92071 33.485 7.76874 33.4268 7.6404 33.3289C7.51205 33.231 7.41248 33.0973 7.353 32.943C7.29352 32.7887 7.27653 32.62 7.30396 32.4561L8.71343 23.8336C8.80653 23.2644 8.7662 22.6799 8.5959 22.1307C8.4256 21.5815 8.13046 21.0839 7.73592 20.681L1.75886 14.5786C1.64462 14.4629 1.56366 14.3159 1.52522 14.1543C1.48677 13.9926 1.49238 13.823 1.5414 13.6645C1.59042 13.5061 1.68089 13.3653 1.8025 13.2581C1.9241 13.151 2.07195 13.0818 2.22921 13.0585L10.4925 11.7917C11.0368 11.7087 11.5538 11.4881 11.9989 11.1491C12.4439 10.8101 12.8038 10.3627 13.0474 9.84543L16.7415 1.99479Z" fill="#FFCA00" stroke="#FFCA00" stroke-width="3" stroke-linecap="round" stroke-linejoin="round"/>
</svg>
